<?xml version="1.0" encoding="UTF-8" standalone="no"?>
<!DOCTYPE svg PUBLIC "-//W3C//DTD SVG 1.1//EN"
 "http://www.w3.org/Graphics/SVG/1.1/DTD/svg11.dtd">
<!-- Generated by graphviz version 14.1.5 (20260411.2331)
 -->
<!-- Title: Aggregator::on_message Pages: 1 -->
<!--zoomable 163 -->

<svg id="main" version="1.1" xmlns="http://www.w3.org/2000/svg" xmlns:xlink="http://www.w3.org/1999/xlink" xml:space="preserve" onload="init(evt)">

<style type="text/css"><![CDATA[
.node, .edge {opacity: 0.7;}
.node.selected, .edge.selected {opacity: 1;}
.edge:hover path { stroke: red; }
.edge:hover polygon { stroke: red; fill: red; }
]]></style>

<defs>
  <circle id="rim" cx="0" cy="0" r="7"/>
  <circle id="rim2" cx="0" cy="0" r="3.5"/>
  <g id="zoomPlus">
    <use xlink:href="#rim" fill="#404040"><set attributeName="fill" to="#808080" begin="zoomplus.mouseover" end="zoomplus.mouseout"/></use>
    <path d="M-4,0h8M0,-4v8" fill="none" stroke="white" stroke-width="1.5" pointer-events="none"/>
  </g>
  <g id="zoomMin">
    <use xlink:href="#rim" fill="#404040"><set attributeName="fill" to="#808080" begin="zoomminus.mouseover" end="zoomminus.mouseout"/></use>
    <path d="M-4,0h8" fill="none" stroke="white" stroke-width="1.5" pointer-events="none"/>
  </g>
  <g id="arrowUp" transform="translate(30 24)">
    <use xlink:href="#rim"/>
    <path pointer-events="none" fill="none" stroke="white" stroke-width="1.5" d="M0,-3.0v7 M-2.5,-0.5L0,-3.0L2.5,-0.5"/>
  </g>
  <g id="arrowRight" transform="rotate(90) translate(36 -43)">
    <use xlink:href="#rim"/>
    <path pointer-events="none" fill="none" stroke="white" stroke-width="1.5" d="M0,-3.0v7 M-2.5,-0.5L0,-3.0L2.5,-0.5"/>
  </g>
  <g id="arrowDown" transform="rotate(180) translate(-30 -48)">
    <use xlink:href="#rim"/>
    <path pointer-events="none" fill="none" stroke="white" stroke-width="1.5" d="M0,-3.0v7 M-2.5,-0.5L0,-3.0L2.5,-0.5"/>
  </g>
  <g id="arrowLeft" transform="rotate(270) translate(-36 17)">
    <use xlink:href="#rim"/>
    <path pointer-events="none" fill="none" stroke="white" stroke-width="1.5" d="M0,-3.0v7 M-2.5,-0.5L0,-3.0L2.5,-0.5"/>
  </g>
  <g id="resetDef">
    <use xlink:href="#rim2" fill="#404040"><set attributeName="fill" to="#808080" begin="reset.mouseover" end="reset.mouseout"/></use>
  </g>
</defs>
<script type="application/ecmascript">
var viewWidth = 841;
var viewHeight = 163;
var sectionId = 'dynsection-4';
</script>
<script type="application/ecmascript" xlink:href="svg.min.js"/>
<svg id="graph" class="graph">
<g id="viewport">
<title>Aggregator::on_message</title>
<!-- Node1 -->
<g id="Node000001" class="node">
<title>Node1</title>
<g id="a_Node000001"><a xlink:title="Non&#45;static message handler. Called when a new DDS/Zenoh message arrives on &quot;generation/objects&quot;.">
<polygon fill="#999999" stroke="#666666" points="124.75,-78.25 0,-78.25 0,-59 124.75,-59 124.75,-78.25"/>
<text xml:space="preserve" text-anchor="middle" x="62.38" y="-64.75" font-family="Helvetica,sans-Serif" font-size="10.00">Aggregator::on_message</text>
</a>
</g>
</g>
<!-- Node2 -->
<g id="Node000002" class="node">
<title>Node2</title>
<g id="a_Node000002"><a xlink:href="class_aggregator.html#ae2bd342a9cd191b12e44492375e8baa0" target="_top" xlink:title="Calculate the CPM object ID based on the sensor and object IDs.">
<polygon fill="white" stroke="#666666" points="307.25,-154.88 178,-154.88 178,-124.38 307.25,-124.38 307.25,-154.88"/>
<text xml:space="preserve" text-anchor="start" x="186" y="-141.38" font-family="Helvetica,sans-Serif" font-size="10.00">Aggregator::calculateCpm</text>
<text xml:space="preserve" text-anchor="middle" x="242.62" y="-130.12" font-family="Helvetica,sans-Serif" font-size="10.00">ObjectID</text>
</a>
</g>
</g>
<!-- Node1&#45;&gt;Node2 -->
<g id="edge1_Node000001_Node000002" class="edge">
<title>Node1&#45;&gt;Node2</title>
<g id="a_edge1_Node000001_Node000002"><a xlink:title=" ">
<path fill="none" stroke="#63b8ff" d="M82.42,-78.61C101.8,-88.53 132.87,-103.79 160.75,-114.62 165.93,-116.64 171.34,-118.6 176.8,-120.48"/>
<polygon fill="#63b8ff" stroke="#63b8ff" points="175.29,-123.67 185.88,-123.52 177.51,-117.03 175.29,-123.67"/>
</a>
</g>
</g>
<!-- Node3 -->
<g id="Node000003" class="node">
<title>Node3</title>
<g id="a_Node000003"><a xlink:href="class_aggregator.html#a6f20c767b7d6707454691a47adae1133" target="_top" xlink:title="get the current timestamp as a string.">
<polygon fill="white" stroke="#666666" points="324.5,-105.88 160.75,-105.88 160.75,-75.38 324.5,-75.38 324.5,-105.88"/>
<text xml:space="preserve" text-anchor="start" x="168.75" y="-92.38" font-family="Helvetica,sans-Serif" font-size="10.00">Aggregator::getCurrentTimestamp</text>
<text xml:space="preserve" text-anchor="middle" x="242.62" y="-81.12" font-family="Helvetica,sans-Serif" font-size="10.00">String</text>
</a>
</g>
</g>
<!-- Node1&#45;&gt;Node3 -->
<g id="edge2_Node000001_Node000003" class="edge">
<title>Node1&#45;&gt;Node3</title>
<g id="a_edge2_Node000001_Node000003"><a xlink:title=" ">
<path fill="none" stroke="#63b8ff" d="M125.22,-76.26C132.94,-77.21 140.97,-78.2 149.03,-79.2"/>
<polygon fill="#63b8ff" stroke="#63b8ff" points="148.57,-82.67 158.92,-80.42 149.43,-75.72 148.57,-82.67"/>
</a>
</g>
</g>
<!-- Node4 -->
<g id="Node000004" class="node">
<title>Node4</title>
<g id="a_Node000004"><a xlink:href="class_aggregator.html#acc20524d70906e180bf58d05ae629209" target="_top" xlink:title="Calculate the priority of an object.">
<polygon fill="white" stroke="#666666" points="299.38,-57.25 185.88,-57.25 185.88,-38 299.38,-38 299.38,-57.25"/>
<text xml:space="preserve" text-anchor="middle" x="242.62" y="-43.75" font-family="Helvetica,sans-Serif" font-size="10.00">Aggregator::getPriority</text>
</a>
</g>
</g>
<!-- Node1&#45;&gt;Node4 -->
<g id="edge3_Node000001_Node000004" class="edge">
<title>Node1&#45;&gt;Node4</title>
<g id="a_edge3_Node000001_Node000004"><a xlink:title=" ">
<path fill="none" stroke="#63b8ff" d="M125.22,-61.34C141.15,-59.46 158.37,-57.43 174.55,-55.53"/>
<polygon fill="#63b8ff" stroke="#63b8ff" points="174.54,-59.05 184.06,-54.41 173.72,-52.1 174.54,-59.05"/>
</a>
</g>
</g>
<!-- Node10 -->
<g id="Node000010" class="node">
<title>Node10</title>
<g id="a_Node000010"><a xlink:href="class_aggregator.html#aa58e2e4af11261516ff814af1ead331d" target="_top" xlink:title="Check if a new object is fresh compared to the previously sent object.">
<polygon fill="white" stroke="#666666" points="483.38,-19.25 381.88,-19.25 381.88,0 483.38,0 483.38,-19.25"/>
<text xml:space="preserve" text-anchor="middle" x="432.62" y="-5.75" font-family="Helvetica,sans-Serif" font-size="10.00">Aggregator::isFresh</text>
</a>
</g>
</g>
<!-- Node1&#45;&gt;Node10 -->
<g id="edge11_Node000001_Node000010" class="edge">
<title>Node1&#45;&gt;Node10</title>
<g id="a_edge11_Node000001_Node000010"><a xlink:title=" ">
<path fill="none" stroke="#63b8ff" d="M82.53,-58.6C101.74,-49.07 132.46,-35.25 160.75,-28.62 231.24,-12.13 314.64,-8.59 370.09,-8.39"/>
<polygon fill="#63b8ff" stroke="#63b8ff" points="369.97,-11.89 379.97,-8.4 369.98,-4.89 369.97,-11.89"/>
</a>
</g>
</g>
<!-- Node5 -->
<g id="Node000005" class="node">
<title>Node5</title>
<g id="a_Node000005"><a xlink:href="class_aggregator.html#a1b4f3417f3efa1063936d14df4bb06df" target="_top" xlink:title="Calculate the priority of an object based the ETSI rules.">
<polygon fill="white" stroke="#666666" points="493.12,-56.25 372.12,-56.25 372.12,-37 493.12,-37 493.12,-56.25"/>
<text xml:space="preserve" text-anchor="middle" x="432.62" y="-42.75" font-family="Helvetica,sans-Serif" font-size="10.00">Aggregator::priorityETSI</text>
</a>
</g>
</g>
<!-- Node4&#45;&gt;Node5 -->
<g id="edge4_Node000004_Node000005" class="edge">
<title>Node4&#45;&gt;Node5</title>
<g id="a_edge4_Node000004_Node000005"><a xlink:title=" ">
<path fill="none" stroke="#63b8ff" d="M299.78,-47.33C318.86,-47.22 340.44,-47.11 360.53,-47"/>
<polygon fill="#63b8ff" stroke="#63b8ff" points="360.34,-50.5 370.33,-46.95 360.31,-43.5 360.34,-50.5"/>
</a>
</g>
</g>
<!-- Node8 -->
<g id="Node000008" class="node">
<title>Node8</title>
<g id="a_Node000008"><a xlink:href="class_aggregator.html#a5f8edb5c3c8c1f192423648a55a70048" target="_top" xlink:title="Calculate the priority of an object based on movement predictor.">
<polygon fill="white" stroke="#666666" points="504.75,-104.88 360.5,-104.88 360.5,-74.38 504.75,-74.38 504.75,-104.88"/>
<text xml:space="preserve" text-anchor="start" x="368.5" y="-91.38" font-family="Helvetica,sans-Serif" font-size="10.00">Aggregator::priorityMovement</text>
<text xml:space="preserve" text-anchor="middle" x="432.62" y="-80.12" font-family="Helvetica,sans-Serif" font-size="10.00">Predictor</text>
</a>
</g>
</g>
<!-- Node4&#45;&gt;Node8 -->
<g id="edge7_Node000004_Node000008" class="edge">
<title>Node4&#45;&gt;Node8</title>
<g id="a_edge7_Node000004_Node000008"><a xlink:title=" ">
<path fill="none" stroke="#63b8ff" d="M288.66,-57.69C307.16,-61.82 329.17,-66.74 350.31,-71.46"/>
<polygon fill="#63b8ff" stroke="#63b8ff" points="349.26,-74.81 359.78,-73.58 350.79,-67.98 349.26,-74.81"/>
</a>
</g>
</g>
<!-- Node6 -->
<g id="Node000006" class="node">
<title>Node6</title>
<g id="a_Node000006"><a xlink:href="class_aggregator.html#afa98f90035018c9abfad84fc3186f6ca" target="_top" xlink:title="Calculate the distance between two lat/lon coordinates (in meters) using the Haversine formula.">
<polygon fill="white" stroke="#666666" points="693.25,-61.88 540.75,-61.88 540.75,-31.38 693.25,-31.38 693.25,-61.88"/>
<text xml:space="preserve" text-anchor="start" x="548.75" y="-48.38" font-family="Helvetica,sans-Serif" font-size="10.00">Aggregator::calculateHaversine</text>
<text xml:space="preserve" text-anchor="middle" x="617" y="-37.12" font-family="Helvetica,sans-Serif" font-size="10.00">Distance</text>
</a>
</g>
</g>
<!-- Node5&#45;&gt;Node6 -->
<g id="edge5_Node000005_Node000006" class="edge">
<title>Node5&#45;&gt;Node6</title>
<g id="a_edge5_Node000005_Node000006"><a xlink:title=" ">
<path fill="none" stroke="#63b8ff" d="M493.59,-46.62C504.92,-46.62 516.98,-46.62 528.95,-46.62"/>
<polygon fill="#63b8ff" stroke="#63b8ff" points="528.85,-50.13 538.85,-46.63 528.85,-43.13 528.85,-50.13"/>
</a>
</g>
</g>
<!-- Node7 -->
<g id="Node000007" class="node">
<title>Node7</title>
<g id="a_Node000007"><a xlink:href="class_aggregator.html#a6028af19b1f78b27002a98541e60f43d" target="_top" xlink:title="Convert degrees to radians.">
<polygon fill="white" stroke="#666666" points="833,-77.25 729.25,-77.25 729.25,-58 833,-58 833,-77.25"/>
<text xml:space="preserve" text-anchor="middle" x="781.12" y="-63.75" font-family="Helvetica,sans-Serif" font-size="10.00">Aggregator::deg2rad</text>
</a>
</g>
</g>
<!-- Node6&#45;&gt;Node7 -->
<g id="edge6_Node000006_Node000007" class="edge">
<title>Node6&#45;&gt;Node7</title>
<g id="a_edge6_Node000006_Node000007"><a xlink:title=" ">
<path fill="none" stroke="#63b8ff" d="M693.37,-56.39C701.48,-57.44 709.67,-58.5 717.6,-59.53"/>
<polygon fill="#63b8ff" stroke="#63b8ff" points="717.15,-63 727.51,-60.81 718.05,-56.05 717.15,-63"/>
</a>
</g>
</g>
<!-- Node8&#45;&gt;Node6 -->
<g id="edge8_Node000008_Node000006" class="edge">
<title>Node8&#45;&gt;Node6</title>
<g id="a_edge8_Node000008_Node000006"><a xlink:title=" ">
<path fill="none" stroke="#63b8ff" d="M500.24,-73.92C512.6,-71.01 525.6,-67.94 538.26,-64.96"/>
<polygon fill="#63b8ff" stroke="#63b8ff" points="538.86,-68.41 547.79,-62.71 537.25,-61.6 538.86,-68.41"/>
</a>
</g>
</g>
<!-- Node8&#45;&gt;Node7 -->
<g id="edge9_Node000008_Node000007" class="edge">
<title>Node8&#45;&gt;Node7</title>
<g id="a_edge9_Node000008_Node000007"><a xlink:title=" ">
<path fill="none" stroke="#63b8ff" d="M505,-85.09C567.63,-81.12 657.8,-75.39 717.63,-71.59"/>
<polygon fill="#63b8ff" stroke="#63b8ff" points="717.54,-75.11 727.3,-70.98 717.1,-68.12 717.54,-75.11"/>
</a>
</g>
</g>
<!-- Node9 -->
<g id="Node000009" class="node">
<title>Node9</title>
<g id="a_Node000009"><a xlink:href="class_aggregator.html#a482deb37649172f3b734fad963e9f4fb" target="_top" xlink:title="Convert radians to degrees.">
<polygon fill="white" stroke="#666666" points="668.88,-137.25 565.12,-137.25 565.12,-118 668.88,-118 668.88,-137.25"/>
<text xml:space="preserve" text-anchor="middle" x="617" y="-123.75" font-family="Helvetica,sans-Serif" font-size="10.00">Aggregator::rad2deg</text>
</a>
</g>
</g>
<!-- Node8&#45;&gt;Node9 -->
<g id="edge10_Node000008_Node000009" class="edge">
<title>Node8&#45;&gt;Node9</title>
<g id="a_edge10_Node000008_Node000009"><a xlink:title=" ">
<path fill="none" stroke="#63b8ff" d="M505.18,-104.53C522.13,-108.07 540.02,-111.79 556.37,-115.2"/>
<polygon fill="#63b8ff" stroke="#63b8ff" points="555.43,-118.58 565.93,-117.19 556.86,-111.73 555.43,-118.58"/>
</a>
</g>
</g>
<!-- Node10&#45;&gt;Node6 -->
<g id="edge12_Node000010_Node000006" class="edge">
<title>Node10&#45;&gt;Node6</title>
<g id="a_edge12_Node000010_Node000006"><a xlink:title=" ">
<path fill="none" stroke="#63b8ff" d="M483.46,-19.74C497.77,-22.64 513.8,-25.89 529.64,-29.11"/>
<polygon fill="#63b8ff" stroke="#63b8ff" points="528.57,-32.46 539.07,-31.02 529.97,-25.6 528.57,-32.46"/>
</a>
</g>
</g>
</g>
</svg>

<g id="navigator" transform="translate(0 0)" fill="#404254">
  <rect fill="#f2f5e9" fill-opacity="0.5" stroke="#606060" stroke-width=".5" x="0" y="0" width="60" height="60"/>
  <use id="zoomplus" xlink:href="#zoomPlus" x="17" y="9" onmousedown="handleZoom(evt,'in')"/>
  <use id="zoomminus" xlink:href="#zoomMin" x="42" y="9" onmousedown="handleZoom(evt,'out')"/>
  <use id="reset" xlink:href="#resetDef" x="30" y="36" onmousedown="handleReset()"/>
   <use id="arrowup" xlink:href="#arrowUp" x="0" y="0" onmousedown="handlePan(0,-1)"/>
  <use id="arrowright" xlink:href="#arrowRight" x="0" y="0" onmousedown="handlePan(1,0)"/>
  <use id="arrowdown" xlink:href="#arrowDown" x="0" y="0" onmousedown="handlePan(0,1)"/>
  <use id="arrowleft" xlink:href="#arrowLeft" x="0" y="0" onmousedown="handlePan(-1,0)"/>
</g>
<svg viewBox="0 0 15 15" width="100%" height="30px" preserveAspectRatio="xMaxYMin meet">
 <g id="arrow_out" transform="scale(0.3 0.3)">
  <a xlink:href="class_aggregator_abdd843d10aec5a10926ef3df58d58f4f_cgraph_org.svg" target="_base">
   <rect id="button" ry="5" rx="5" y="6" x="6" height="38" width="38"
        fill="#f2f5e9" fill-opacity="0.5" stroke="#606060" stroke-width="1.0"/>
   <path id="arrow"
     d="M 11.500037,31.436501 C 11.940474,20.09759 22.043105,11.32322 32.158766,21.979434 L 37.068811,17.246167 C 37.068811,17.246167 37.088388,32 37.088388,32 L 22.160133,31.978069 C 22.160133,31.978069 26.997745,27.140456 26.997745,27.140456 C 18.528582,18.264221 13.291696,25.230495 11.500037,31.436501 z"
     style="fill:#404040;"/>
  </a>
 </g>
</svg>

<style type='text/css'>
<![CDATA[
[data-mouse-over-selected='false'] { opacity: 0.7; }
[data-mouse-over-selected='true']  { opacity: 1.0; }
]]>
</style>
<script type="application/ecmascript"><![CDATA[
document.addEventListener('DOMContentLoaded', (event) => {
  highlightEdges();
  highlightAdjacentNodes();
});
]]></script>
</svg>
